# Blender 3.5.0
# www.blender.org
o Cube
v 0.025000 -0.035000 -0.050000
v 0.025000 -0.035000 -0.100000
v -0.025000 -0.035000 -0.050000
v -0.025000 -0.035000 -0.100000
v -0.025000 0.035000 -0.050000
v -0.025000 0.035000 -0.100000
v 0.025000 0.035000 -0.050000
v 0.025000 0.035000 -0.100000
v 0.025000 0.025000 0.000000
v 0.025000 -0.025000 0.000000
v -0.025000 0.025000 0.000000
v -0.025000 -0.025000 0.000000
v -0.025000 0.025000 -0.150000
v -0.025000 -0.025000 -0.150000
v 0.025000 0.025000 -0.150000
v 0.025000 -0.025000 -0.150000
v 0.035000 0.025000 -0.100000
v 0.035000 -0.025000 -0.100000
v 0.035000 0.025000 -0.050000
v 0.035000 -0.025000 -0.050000
v -0.035000 -0.025000 -0.100000
v -0.035000 0.025000 -0.100000
v -0.035000 -0.025000 -0.050000
v -0.035000 0.025000 -0.050000
v -0.035000 -0.032500 -0.147500
v -0.032500 -0.032500 -0.150000
v -0.032500 -0.035000 -0.147500
v -0.035000 -0.032500 -0.002500
v -0.032500 -0.035000 -0.002500
v -0.032500 -0.032500 0.000000
v -0.035000 0.032500 -0.147500
v -0.032500 0.035000 -0.147500
v -0.032500 0.032500 -0.150000
v -0.035000 0.032500 -0.002500
v -0.032500 0.032500 0.000000
v -0.032500 0.035000 -0.002500
v 0.035000 -0.032500 -0.147500
v 0.032500 -0.035000 -0.147500
v 0.032500 -0.032500 -0.150000
v 0.035000 -0.032500 -0.002500
v 0.032500 -0.032500 0.000000
v 0.032500 -0.035000 -0.002500
v 0.032500 0.035000 -0.147500
v 0.035000 0.032500 -0.147500
v 0.032500 0.032500 -0.150000
v 0.032500 0.032500 0.000000
v 0.035000 0.032500 -0.002500
v 0.032500 0.035000 -0.002500
v 0.025000 0.032500 -0.150000
v 0.025000 0.035000 -0.147500
v -0.025000 0.035000 -0.147500
v -0.025000 0.032500 -0.150000
v -0.025000 0.032500 0.000000
v -0.025000 0.035000 -0.002500
v 0.025000 0.035000 -0.002500
v 0.025000 0.032500 0.000000
v -0.025000 -0.032500 -0.150000
v -0.025000 -0.035000 -0.147500
v 0.025000 -0.035000 -0.147500
v 0.025000 -0.032500 -0.150000
v 0.025000 -0.032500 0.000000
v 0.025000 -0.035000 -0.002500
v -0.025000 -0.035000 -0.002500
v -0.025000 -0.032500 0.000000
v -0.032500 -0.035000 -0.100000
v -0.035000 -0.032500 -0.100000
v -0.035000 -0.032500 -0.050000
v -0.032500 -0.035000 -0.050000
v -0.032500 0.035000 -0.050000
v -0.035000 0.032500 -0.050000
v -0.035000 0.032500 -0.100000
v -0.032500 0.035000 -0.100000
v 0.035000 0.032500 -0.050000
v 0.032500 0.035000 -0.050000
v 0.032500 0.035000 -0.100000
v 0.035000 0.032500 -0.100000
v 0.032500 -0.035000 -0.050000
v 0.035000 -0.032500 -0.050000
v 0.035000 -0.032500 -0.100000
v 0.032500 -0.035000 -0.100000
v -0.032500 0.025000 -0.150000
v -0.035000 0.025000 -0.147500
v -0.035000 -0.025000 -0.147500
v -0.032500 -0.025000 -0.150000
v -0.032500 -0.025000 0.000000
v -0.035000 -0.025000 -0.002500
v -0.035000 0.025000 -0.002500
v -0.032500 0.025000 0.000000
v 0.032500 -0.025000 -0.150000
v 0.035000 -0.025000 -0.147500
v 0.035000 0.025000 -0.147500
v 0.032500 0.025000 -0.150000
v 0.032500 0.025000 0.000000
v 0.035000 0.025000 -0.002500
v 0.035000 -0.025000 -0.002500
v 0.032500 -0.025000 0.000000
vn 1.0000 -0.0000 -0.0000
vn -0.0000 -0.0000 1.0000
vn -1.0000 -0.0000 -0.0000
vn -0.0000 -1.0000 -0.0000
vn -0.0000 1.0000 -0.0000
vn -0.0000 -0.0000 -1.0000
vn -0.5774 -0.5774 -0.5774
vn -0.5774 -0.5774 0.5773
vn -0.5774 0.5774 -0.5774
vn -0.5774 0.5774 0.5773
vn 0.5774 -0.5774 -0.5774
vn 0.5774 -0.5774 0.5773
vn 0.5774 0.5774 -0.5774
vn 0.5774 0.5774 0.5773
vn -0.7071 -0.0000 -0.7071
vn -0.7071 -0.7071 -0.0000
vn -0.7071 -0.0000 0.7071
vn -0.7071 0.7071 -0.0000
vn -0.0000 0.7071 -0.7071
vn -0.0000 0.7071 0.7071
vn 0.7071 0.7071 -0.0000
vn 0.7071 -0.0000 -0.7071
vn 0.7071 -0.0000 0.7071
vn 0.7071 -0.7071 -0.0000
vn -0.0000 -0.7071 -0.7071
vn -0.0000 -0.7071 0.7071
vt 0.738547 0.635194
vt 0.738547 0.665021
vt 0.501587 0.001022
vt 0.768374 0.665021
vt 0.501587 0.499754
vt 0.768374 0.635194
vt 0.768374 0.665021
vt 0.738547 0.665021
vt 0.738547 0.635194
vt 0.738547 0.665021
vt 1.000319 0.001022
vt 0.768374 0.635194
vt 0.738547 0.635194
vt 0.768374 0.635194
vt 0.768374 0.665021
vt 1.000319 0.499754
vt 0.738547 0.635194
vt 0.501977 0.499690
vt 0.768374 0.665021
vt 0.738547 0.665021
vt 0.501977 0.998991
vt 0.768374 0.665021
vt 0.738547 0.665021
vt 0.768374 0.635194
vt 0.738547 0.635194
vt 1.001278 0.499690
vt 0.768374 0.635194
vt 0.738547 0.665021
vt 0.738547 0.635194
vt 1.001279 0.998991
vt 0.768374 0.665021
vt 0.768374 0.635194
vt 0.738547 0.635194
vt 0.738547 0.665021
vt 0.768374 0.665021
vt 0.768374 0.635194
vt 0.738547 0.635194
vt 0.768374 0.635194
vt 0.738547 0.665021
vt 0.768374 0.665021
vt 0.738547 0.665021
vt 0.738547 0.635194
vt 0.768374 0.665021
vt 0.768374 0.635194
vt 0.738547 0.635194
vt 0.768374 0.635194
vt 0.768374 0.665021
vt 0.738547 0.665021
vt 0.738547 0.635194
vt 0.768374 0.665021
vt 0.768374 0.635194
vt 0.738547 0.665021
vt 0.738547 0.635194
vt 0.768374 0.665021
vt 0.768374 0.635194
vt 0.738547 0.665021
vt 0.738547 0.665021
vt 0.738547 0.635194
vt 0.768374 0.635194
vt 0.768374 0.665021
vt 0.768374 0.635194
vt 0.738547 0.635194
vt 0.768374 0.665021
vt 0.738547 0.665021
vt 0.002360 0.499264
vt 0.768374 0.665021
vt 0.738547 0.665021
vt 0.768374 0.635194
vt 0.738547 0.635194
vt 0.768374 0.635194
vt 0.502187 0.499264
vt 0.768374 0.665021
vt 0.738547 0.635194
vt 0.738547 0.665021
vt 0.768374 0.665021
vt 0.002360 -0.000563
vt 0.738547 0.635194
vt 0.768374 0.635194
vt 0.502187 -0.000563
vt 0.738547 0.665021
vt 0.718861 0.683477
vt 0.002674 0.999233
vt 0.748688 0.653650
vt 0.748688 0.683477
vt 0.718861 0.653650
vt 0.748688 0.653650
vt 0.503074 0.999233
vt 0.748688 0.683477
vt 0.718861 0.653650
vt 0.748688 0.683477
vt 0.718861 0.683477
vt 0.002674 0.498832
vt 0.718861 0.653650
vt 0.748688 0.653650
vt 0.503074 0.498832
vt 0.718861 0.683477
vt 0.739693 0.642975
vt 0.738547 0.657565
vt 0.740038 0.665021
vt 0.746004 0.657565
vt 0.740038 0.657565
vt 0.746004 0.665021
vt 0.766537 0.642975
vt 0.766883 0.665022
vt 0.768374 0.657565
vt 0.766883 0.657565
vt 0.760918 0.665021
vt 0.768374 0.657565
vt 0.760918 0.657565
vt 0.740038 0.635194
vt 0.739693 0.657889
vt 0.740038 0.642651
vt 0.746004 0.642651
vt 0.738547 0.657565
vt 0.738547 0.642651
vt 0.766537 0.657889
vt 0.768374 0.642651
vt 0.760917 0.642651
vt 0.768374 0.657565
vt 0.766883 0.665021
vt 0.766883 0.642651
vt 0.740038 0.657565
vt 0.740038 0.635194
vt 0.768374 0.657565
vt 0.740038 0.642651
vt 0.760918 0.665021
vt 0.738547 0.642651
vt 0.760918 0.657565
vt 0.766883 0.657565
vt 0.746004 0.657565
vt 0.768374 0.657565
vt 0.766883 0.665021
vt 0.766883 0.642651
vt 0.746004 0.665021
vt 0.740038 0.657565
vt 0.740038 0.665021
vt 0.740038 0.642651
vt 0.738547 0.657565
vt 0.760917 0.642651
vt 0.738547 0.642651
vt 0.746004 0.642651
vt 0.768374 0.657565
vt 0.766883 0.665021
vt 0.766883 0.642651
vt 0.738547 0.642651
vt 0.746004 0.635194
vt 0.766883 0.657565
vt 0.738547 0.665021
vt 0.738547 0.642651
vt 0.768374 0.642651
vt 0.738547 0.635194
vt 0.740038 0.635194
vt 0.740038 0.665021
vt 0.740038 0.665021
vt 0.740038 0.635194
vt 0.738547 0.642651
vt 0.738547 0.665021
vt 0.768374 0.642651
vt 0.738547 0.635194
vt 0.768374 0.635194
vt 0.768374 0.642651
vt 0.738547 0.642651
vt 0.768374 0.665021
vt 0.766883 0.665021
vt 0.766883 0.635194
vt 0.766883 0.635194
vt 0.766883 0.665021
vt 0.738547 0.642651
vt 0.768374 0.635194
vt 0.768374 0.642651
vt 0.768374 0.665021
vt 0.738547 0.657565
vt 0.768374 0.657565
vt 0.740038 0.635194
vt 0.740038 0.665021
vt 0.768374 0.665021
vt 0.738547 0.665021
vt 0.740038 0.635194
vt 0.740038 0.665021
vt 0.738547 0.665021
vt 0.768374 0.665021
vt 0.738547 0.657565
vt 0.768374 0.657565
vt 0.738547 0.657565
vt 0.768374 0.657565
vt 0.766883 0.665021
vt 0.766883 0.635194
vt 0.768374 0.665021
vt 0.738547 0.665021
vt 0.766883 0.665021
vt 0.766883 0.635194
vt 0.738547 0.665021
vt 0.768374 0.665021
vt 0.738547 0.657565
vt 0.768374 0.657565
vt 0.738547 0.657565
vt 0.768374 0.657565
vt 0.733625 0.647265
vt 0.768374 0.665021
vt 0.738547 0.665021
vt 0.763453 0.647265
vt 0.733625 0.647265
vt 0.763453 0.647265
vt 0.738547 0.665021
vt 0.768374 0.665021
vt 0.738547 0.657565
vt 0.768374 0.657565
vt 0.738547 0.642651
vt 0.768374 0.642651
vt 0.738547 0.665021
vt 0.763453 0.662179
vt 0.733625 0.662179
vt 0.768374 0.635194
vt 0.763453 0.662179
vt 0.733625 0.662179
vt 0.768374 0.635194
vt 0.738547 0.635194
vt 0.768374 0.642651
vt 0.738547 0.642651
vt 0.738547 0.642651
vt 0.768374 0.665021
vt 0.768374 0.642651
vt 0.738547 0.665021
vt 0.738547 0.657565
vt 0.768374 0.657565
vt 0.768374 0.657565
vt 0.738547 0.657565
vt 0.738547 0.642651
vt 0.768374 0.665021
vt 0.768374 0.642651
vt 0.738547 0.665021
vt 0.738547 0.642651
vt 0.768374 0.642651
vt 0.738547 0.665021
vt 0.768374 0.657565
vt 0.738547 0.657565
vt 0.768374 0.635194
vt 0.768374 0.657565
vt 0.738547 0.657565
vt 0.768374 0.635194
vt 0.738547 0.635194
vt 0.768374 0.642651
vt 0.738547 0.642651
vt 0.746004 0.635194
vt 0.738547 0.665021
vt 0.746004 0.665021
vt 0.738547 0.635194
vt 0.739054 0.636117
vt 0.739054 0.665944
vt 0.738547 0.635194
vt 0.739054 0.636117
vt 0.739054 0.665944
vt 0.746004 0.635194
vt 0.746004 0.665021
vt 0.738547 0.635194
vt 0.760918 0.665021
vt 0.760918 0.635194
vt 0.765899 0.665944
vt 0.765899 0.636117
vt 0.768374 0.635194
vt 0.768374 0.665021
vt 0.765899 0.665944
vt 0.765899 0.636117
vt 0.768374 0.635194
vt 0.768374 0.635194
vt 0.760917 0.665021
vt 0.760917 0.635194
vt 0.738547 0.665021
vt 0.760918 0.665021
vt 0.760918 0.635194
vt 0.740038 0.635194
vt 0.768374 0.635194
vt 0.740038 0.665021
vt 0.740038 0.665021
vt 0.740038 0.635194
vt 0.738547 0.665021
vt 0.760918 0.665021
vt 0.760918 0.635194
vt 0.738547 0.635194
vt 0.746004 0.635194
vt 0.746004 0.665021
vt 0.766883 0.665021
vt 0.766883 0.635194
vt 0.738547 0.665021
vt 0.738547 0.635194
vt 0.766883 0.665021
vt 0.766883 0.635194
vt 0.738547 0.665021
vt 0.746004 0.635194
vt 0.768374 0.635194
vt 0.746004 0.665021
s 0
f 18/70/1 37/122/1 90/271/1
f 47/144/1 19/74/1 73/220/1
f 76/230/1 91/274/1 44/137/1
f 12/45/2 30/109/2 64/194/2
f 10/38/2 41/130/2 96/289/2
f 22/86/3 31/111/3 82/248/3
f 42/133/4 1/2/4 77/232/4
f 66/198/3 23/90/3 21/81/3
f 4/14/4 27/101/4 58/174/4
f 62/187/4 3/10/4 1/1/4
f 95/287/1 78/236/1 20/77/1
f 12/46/2 61/184/2 10/37/2
f 87/263/3 70/212/3 24/93/3
f 2/6/4 58/175/4 59/178/4
f 53/161/2 9/34/2 56/168/2
f 5/18/5 8/30/5 6/21/5
f 52/158/6 81/246/6 33/113/6
f 73/222/1 17/67/1 76/228/1
f 16/61/6 57/172/6 14/53/6
f 1/3/4 4/16/4 2/5/4
f 16/62/6 39/128/6 60/182/6
f 13/51/6 84/254/6 81/244/6
f 28/103/3 23/91/3 67/202/3
f 24/94/3 71/215/3 22/85/3
f 80/242/4 59/179/4 38/125/4
f 77/233/4 2/8/4 80/243/4
f 56/170/2 93/281/2 46/141/2
f 20/78/1 79/239/1 18/69/1
f 72/218/5 51/154/5 32/112/5
f 69/209/5 6/23/5 72/219/5
f 3/12/4 65/196/4 4/13/4
f 23/92/3 22/87/3 21/82/3
f 14/55/6 26/100/6 84/253/6
f 86/259/3 24/96/3 23/89/3
f 7/27/5 75/227/5 8/29/5
f 19/76/1 18/71/1 17/65/1
f 49/149/6 92/277/6 15/57/6
f 94/283/1 20/80/1 19/73/1
f 6/24/5 50/153/5 51/155/5
f 15/59/6 14/56/6 13/49/6
f 53/162/2 88/266/2 11/41/2
f 21/83/3 82/249/3 83/251/3
f 54/165/5 7/28/5 5/17/5
f 11/44/2 10/39/2 9/33/2
f 55/166/5 74/224/5 7/25/5
f 36/121/5 5/20/5 69/208/5
f 92/278/6 16/64/6 15/58/6
f 8/32/5 43/135/5 50/152/5
f 17/68/1 90/273/1 91/275/1
f 49/150/6 13/52/6 52/156/6
f 9/36/2 96/291/2 93/280/2
f 63/191/4 68/206/4 3/9/4
f 88/267/2 12/48/2 11/42/2
f 25/98/7 26/100/7 27/102/7
f 28/104/8 29/106/8 30/108/8
f 31/110/9 32/112/9 33/115/9
f 34/116/10 35/119/10 36/120/10
f 37/123/11 38/125/11 39/127/11
f 40/129/12 41/131/12 42/132/12
f 43/135/13 44/136/13 45/138/13
f 46/141/14 47/145/14 48/146/14
f 26/100/15 83/250/15 84/253/15
f 29/106/16 67/204/16 68/206/16
f 35/119/17 87/263/17 88/265/17
f 32/112/18 71/216/18 72/218/18
f 33/115/19 51/154/19 52/157/19
f 46/142/20 55/166/20 56/169/20
f 44/136/21 75/226/21 76/229/21
f 45/140/22 91/274/22 92/276/22
f 41/131/23 95/287/23 96/290/23
f 38/125/24 79/240/24 80/242/24
f 39/128/25 59/180/25 60/182/25
f 30/109/26 63/192/26 64/194/26
f 49/151/19 43/135/19 45/138/19
f 52/159/19 50/153/19 49/148/19
f 53/163/20 36/121/20 35/117/20
f 56/171/20 54/165/20 53/160/20
f 57/173/25 27/102/25 26/100/25
f 60/183/25 58/177/25 57/172/25
f 61/185/26 42/134/26 41/130/26
f 64/195/26 62/189/26 61/184/26
f 65/197/16 25/99/16 27/101/16
f 68/207/16 66/200/16 65/196/16
f 69/210/18 34/116/18 36/120/18
f 72/219/18 70/213/18 69/209/18
f 73/223/21 48/147/21 47/143/21
f 76/231/21 74/225/21 73/221/21
f 77/234/24 40/129/24 42/132/24
f 80/243/24 78/237/24 77/233/24
f 81/247/15 31/111/15 33/114/15
f 84/255/15 82/249/15 81/245/15
f 85/257/17 28/105/17 30/109/17
f 88/267/17 86/261/17 85/256/17
f 89/270/22 37/124/22 39/128/22
f 92/279/22 90/273/22 89/268/22
f 93/281/23 47/145/23 46/141/23
f 96/291/23 94/285/23 93/280/23
f 66/201/3 83/252/3 25/97/3
f 18/70/1 79/238/1 37/122/1
f 47/144/1 94/282/1 19/74/1
f 76/230/1 17/66/1 91/274/1
f 12/45/2 85/257/2 30/109/2
f 10/38/2 61/185/2 41/130/2
f 22/86/3 71/214/3 31/111/3
f 42/133/4 62/186/4 1/2/4
f 66/198/3 67/203/3 23/90/3
f 4/14/4 65/197/4 27/101/4
f 62/187/4 63/190/4 3/10/4
f 95/287/1 40/129/1 78/236/1
f 12/46/2 64/195/2 61/184/2
f 87/263/3 34/116/3 70/212/3
f 2/6/4 4/15/4 58/175/4
f 53/161/2 11/43/2 9/34/2
f 5/18/5 7/26/5 8/30/5
f 52/158/6 13/50/6 81/246/6
f 73/222/1 19/75/1 17/67/1
f 16/61/6 60/183/6 57/172/6
f 1/3/4 3/11/4 4/16/4
f 16/62/6 89/270/6 39/128/6
f 13/51/6 14/54/6 84/254/6
f 28/103/3 86/258/3 23/91/3
f 24/94/3 70/211/3 71/215/3
f 80/242/4 2/7/4 59/179/4
f 77/233/4 1/4/4 2/8/4
f 56/170/2 9/35/2 93/281/2
f 20/78/1 78/235/1 79/239/1
f 72/218/5 6/22/5 51/154/5
f 69/209/5 5/19/5 6/23/5
f 3/12/4 68/207/4 65/196/4
f 23/92/3 24/95/3 22/87/3
f 14/55/6 57/173/6 26/100/6
f 86/259/3 87/262/3 24/96/3
f 7/27/5 74/225/5 75/227/5
f 19/76/1 20/79/1 18/71/1
f 49/149/6 45/139/6 92/277/6
f 94/283/1 95/286/1 20/80/1
f 6/24/5 8/31/5 50/153/5
f 15/59/6 16/63/6 14/56/6
f 53/162/2 35/118/2 88/266/2
f 21/83/3 22/88/3 82/249/3
f 54/165/5 55/167/5 7/28/5
f 11/44/2 12/47/2 10/39/2
f 55/166/5 48/147/5 74/224/5
f 36/121/5 54/164/5 5/20/5
f 92/278/6 89/269/6 16/64/6
f 8/32/5 75/226/5 43/135/5
f 17/68/1 18/72/1 90/273/1
f 49/150/6 15/60/6 13/52/6
f 9/36/2 10/40/2 96/291/2
f 63/191/4 29/106/4 68/206/4
f 88/267/2 85/256/2 12/48/2
f 26/100/15 25/98/15 83/250/15
f 29/106/16 28/104/16 67/204/16
f 35/119/17 34/116/17 87/263/17
f 32/112/18 31/110/18 71/216/18
f 33/115/19 32/112/19 51/154/19
f 46/142/20 48/147/20 55/166/20
f 44/136/21 43/135/21 75/226/21
f 45/140/22 44/137/22 91/274/22
f 41/131/23 40/129/23 95/287/23
f 38/125/24 37/123/24 79/240/24
f 39/128/25 38/126/25 59/180/25
f 30/109/26 29/107/26 63/192/26
f 49/151/19 50/152/19 43/135/19
f 52/159/19 51/155/19 50/153/19
f 53/163/20 54/164/20 36/121/20
f 56/171/20 55/167/20 54/165/20
f 57/173/25 58/176/25 27/102/25
f 60/183/25 59/181/25 58/177/25
f 61/185/26 62/188/26 42/134/26
f 64/195/26 63/193/26 62/189/26
f 65/197/16 66/199/16 25/99/16
f 68/207/16 67/205/16 66/200/16
f 69/210/18 70/212/18 34/116/18
f 72/219/18 71/217/18 70/213/18
f 73/223/21 74/224/21 48/147/21
f 76/231/21 75/227/21 74/225/21
f 77/234/24 78/236/24 40/129/24
f 80/243/24 79/241/24 78/237/24
f 81/247/15 82/248/15 31/111/15
f 84/255/15 83/251/15 82/249/15
f 85/257/17 86/260/17 28/105/17
f 88/267/17 87/264/17 86/261/17
f 89/270/22 90/272/22 37/124/22
f 92/279/22 91/275/22 90/273/22
f 93/281/23 94/284/23 47/145/23
f 96/291/23 95/288/23 94/285/23
f 66/201/3 21/84/3 83/252/3
