# Blender 3.4.1
# www.blender.org
o ovning_corner_phy
v -0.004000 -0.200099 -0.390000
v -0.004000 -0.200099 0.000000
v 0.004000 -0.200099 -0.390000
v 0.004000 -0.200099 0.000000
v -0.004000 -0.540099 -0.390000
v -0.004000 -0.590099 -0.340000
v -0.004000 -0.553040 -0.388296
v -0.004000 -0.565099 -0.383301
v -0.004000 -0.575454 -0.375355
v -0.004000 -0.583400 -0.365000
v -0.004000 -0.588395 -0.352941
v -0.004000 -0.590099 -0.050000
v -0.004000 -0.540099 0.000000
v -0.004000 -0.588395 -0.037059
v -0.004000 -0.583400 -0.025000
v -0.004000 -0.575454 -0.014645
v -0.004000 -0.565099 -0.006699
v -0.004000 -0.553040 -0.001704
v 0.004000 -0.590099 -0.340000
v 0.004000 -0.540099 -0.390000
v 0.004000 -0.588395 -0.352941
v 0.004000 -0.583400 -0.365000
v 0.004000 -0.575454 -0.375355
v 0.004000 -0.565099 -0.383301
v 0.004000 -0.553040 -0.388296
v 0.004000 -0.540099 0.000000
v 0.004000 -0.590099 -0.050000
v 0.004000 -0.553040 -0.001704
v 0.004000 -0.565099 -0.006699
v 0.004000 -0.575454 -0.014645
v 0.004000 -0.583400 -0.025000
v 0.004000 -0.588395 -0.037059
v -0.004000 0.200099 -0.390000
v -0.004000 0.200099 0.000000
v 0.004000 0.200099 -0.390000
v 0.004000 0.200099 0.000000
v 0.337432 0.208963 -0.390000
v 0.387432 0.208963 -0.340000
v 0.350373 0.208963 -0.388296
v 0.362432 0.208963 -0.383301
v 0.372788 0.208963 -0.375355
v 0.380734 0.208963 -0.365000
v 0.385729 0.208963 -0.352941
v 0.387432 0.208963 -0.050000
v 0.337432 0.208963 -0.000000
v 0.385729 0.208963 -0.037059
v 0.380734 0.208963 -0.025000
v 0.372788 0.208963 -0.014645
v 0.362432 0.208963 -0.006699
v 0.350373 0.208963 -0.001704
v 0.387432 0.200963 -0.340000
v 0.337432 0.200963 -0.390000
v 0.385729 0.200963 -0.352941
v 0.380734 0.200963 -0.365000
v 0.372788 0.200963 -0.375355
v 0.362432 0.200963 -0.383301
v 0.350373 0.200963 -0.388296
v 0.337432 0.200963 -0.000000
v 0.387432 0.200963 -0.050000
v 0.350373 0.200963 -0.001704
v 0.362432 0.200963 -0.006699
v 0.372788 0.200963 -0.014645
v 0.380734 0.200963 -0.025000
v 0.385729 0.200963 -0.037059
v -0.004000 -0.207795 0.000000
v -0.004000 -0.192044 0.000000
v -0.004000 -0.207795 -0.390000
v -0.004000 -0.192044 -0.390000
v 0.004000 -0.207795 -0.390000
v 0.004000 -0.192044 -0.390000
v 0.004000 -0.207795 0.000000
v 0.004000 -0.192044 0.000000
v 0.004904 0.208963 -0.000000
v -0.004000 0.192800 0.000000
v 0.004904 0.208963 -0.390000
v -0.004000 0.192800 -0.390000
v 0.004904 0.200963 -0.390000
v 0.004000 0.192800 -0.390000
v 0.004904 0.200963 -0.000000
v 0.004000 0.192800 0.000000
v -0.004000 -0.553040 -0.388296
v -0.004000 -0.540099 -0.390000
v 0.004000 -0.540099 -0.390000
v 0.004000 -0.553040 -0.388296
v -0.004000 -0.565099 -0.383301
v 0.004000 -0.565099 -0.383301
v -0.004000 -0.575454 -0.375355
v 0.004000 -0.575454 -0.375355
v -0.004000 -0.583400 -0.365000
v 0.004000 -0.583400 -0.365000
v -0.004000 -0.588395 -0.352941
v 0.004000 -0.588395 -0.352941
v -0.004000 -0.590099 -0.340000
v 0.004000 -0.590099 -0.340000
v 0.004000 -0.553040 -0.001704
v 0.004000 -0.540099 0.000000
v -0.004000 -0.540099 0.000000
v -0.004000 -0.553040 -0.001704
v 0.004000 -0.565099 -0.006699
v -0.004000 -0.565099 -0.006699
v 0.004000 -0.575454 -0.014645
v -0.004000 -0.575454 -0.014645
v 0.004000 -0.583400 -0.025000
v -0.004000 -0.583400 -0.025000
v 0.004000 -0.588395 -0.037059
v -0.004000 -0.588395 -0.037059
v 0.004000 -0.590099 -0.050000
v -0.004000 -0.590099 -0.050000
v -0.004000 -0.207795 -0.390000
v -0.004000 -0.200099 -0.390000
v 0.004000 -0.200099 -0.390000
v 0.004000 -0.207795 -0.390000
v -0.004000 -0.207795 0.000000
v -0.004000 -0.200099 0.000000
v 0.004000 -0.207795 0.000000
v 0.004000 -0.200099 0.000000
v -0.004000 0.200099 0.000000
v -0.004000 0.200099 0.000000
v -0.004000 0.200099 -0.390000
v -0.004000 0.200099 -0.390000
v 0.004000 0.200099 0.000000
v 0.004000 0.200099 0.000000
v 0.004000 0.200099 -0.390000
v 0.004000 0.200099 -0.390000
v 0.350373 0.208963 -0.388296
v 0.337432 0.208963 -0.390000
v 0.337432 0.200963 -0.390000
v 0.350373 0.200963 -0.388296
v 0.362432 0.208963 -0.383301
v 0.362432 0.200963 -0.383301
v 0.372788 0.208963 -0.375355
v 0.372788 0.200963 -0.375355
v 0.380734 0.208963 -0.365000
v 0.380734 0.200963 -0.365000
v 0.385729 0.208963 -0.352941
v 0.385729 0.200963 -0.352941
v 0.387432 0.208963 -0.340000
v 0.387432 0.208963 -0.340000
v 0.387432 0.200963 -0.340000
v 0.387432 0.200963 -0.340000
v 0.350373 0.200963 -0.001704
v 0.337432 0.200963 -0.000000
v 0.337432 0.208963 -0.000000
v 0.350373 0.208963 -0.001704
v 0.362432 0.200963 -0.006699
v 0.362432 0.208963 -0.006699
v 0.372788 0.200963 -0.014645
v 0.372788 0.208963 -0.014645
v 0.380734 0.200963 -0.025000
v 0.380734 0.208963 -0.025000
v 0.385729 0.200963 -0.037059
v 0.385729 0.208963 -0.037059
v 0.387432 0.200963 -0.050000
v 0.387432 0.200963 -0.050000
v 0.387432 0.208963 -0.050000
v 0.387432 0.208963 -0.050000
v 0.004904 0.208963 -0.390000
v 0.004904 0.200963 -0.390000
v 0.004904 0.208963 -0.000000
v 0.004904 0.200963 -0.000000
v 0.004000 -0.192044 -0.390000
v 0.004000 -0.192044 0.000000
v -0.004000 -0.192044 -0.390000
v -0.004000 -0.192044 0.000000
v -0.004000 0.192800 0.000000
v -0.004000 0.192800 -0.390000
v 0.004000 0.192800 -0.390000
v 0.004000 0.192800 0.000000
vn -0.0000 -0.9979 0.0654
vn -0.0000 -0.9979 -0.0654
vn -0.0000 -0.0000 1.0000
vn -1.0000 -0.0000 -0.0000
vn 1.0000 -0.0000 -0.0000
vn -0.0000 -0.0654 -0.9979
vn -0.0000 -0.2588 -0.9659
vn -0.0000 -0.5000 -0.8660
vn -0.0000 -0.7071 -0.7071
vn -0.0000 -0.8660 -0.5000
vn -0.0000 -0.9659 -0.2588
vn -0.0000 -0.0654 0.9979
vn -0.0000 -0.2588 0.9659
vn -0.0000 -0.5000 0.8660
vn -0.0000 -0.7071 0.7071
vn -0.0000 -0.8660 0.5000
vn -0.0000 -0.9659 0.2588
vn -0.0000 -0.0000 -1.0000
vn -0.7055 0.7087 -0.0000
vn -0.4455 0.8953 -0.0000
vn -0.4456 0.8953 -0.0000
vn 0.4309 -0.9024 -0.0000
vn 0.6907 -0.7232 -0.0000
vn 0.2633 -0.0000 -0.9647
vn 0.0657 -0.0000 -0.9978
vn 0.5086 -0.0000 -0.8610
vn 0.7192 -0.0000 -0.6948
vn 0.8806 -0.0000 -0.4738
vn 0.9805 -0.0000 -0.1965
vn 0.9914 -0.0000 -0.1305
vn 0.2633 -0.0000 0.9647
vn 0.0657 -0.0000 0.9978
vn 0.5086 -0.0000 0.8610
vn 0.7192 -0.0000 0.6948
vn 0.8806 -0.0000 0.4738
vn 0.9805 -0.0000 0.1965
vn 0.9914 -0.0000 0.1305
vn -0.0000 1.0000 -0.0000
vn -0.0000 -1.0000 -0.0000
vt 0.336963 0.240313
vt 0.337669 0.271550
vt 0.342047 0.511611
vt 0.339700 0.993052
vt 0.951825 0.008577
vt 0.993976 0.071155
vt 0.963196 0.009538
vt 0.973823 0.014853
vt 0.982861 0.025734
vt 0.989252 0.039163
vt 0.993155 0.055895
vt 0.995844 0.432755
vt 0.952336 0.493563
vt 0.994407 0.448952
vt 0.990196 0.464044
vt 0.983498 0.477005
vt 0.974768 0.486950
vt 0.964408 0.492611
vt 0.009553 0.569817
vt 0.051219 0.506259
vt 0.010512 0.553133
vt 0.014520 0.537569
vt 0.021296 0.523704
vt 0.029771 0.513134
vt 0.039820 0.507488
vt 0.050173 0.993642
vt 0.008507 0.930084
vt 0.039389 0.991476
vt 0.029340 0.985127
vt 0.020710 0.975026
vt 0.014089 0.961863
vt 0.009927 0.946534
vt 0.340125 0.009045
vt 0.335357 0.488022
vt 0.665439 0.513523
vt 0.669745 0.992722
vt 0.047389 0.002904
vt 0.006796 0.065482
vt 0.035259 0.004664
vt 0.025093 0.011288
vt 0.017777 0.020938
vt 0.012148 0.032128
vt 0.007744 0.048542
vt 0.004007 0.429526
vt 0.045924 0.491758
vt 0.005597 0.446261
vt 0.009420 0.460469
vt 0.016119 0.473429
vt 0.024848 0.483374
vt 0.035015 0.489625
vt 0.992701 0.573415
vt 0.953188 0.511964
vt 0.991281 0.556965
vt 0.987119 0.541636
vt 0.981266 0.529175
vt 0.973714 0.519777
vt 0.964741 0.513428
vt 0.953342 0.995544
vt 0.995469 0.933624
vt 0.963972 0.994314
vt 0.975406 0.988668
vt 0.984803 0.977630
vt 0.990810 0.966106
vt 0.994357 0.951011
vt 0.677499 0.491544
vt 0.664375 0.491428
vt 0.330871 0.240313
vt 0.664471 0.008705
vt 0.330871 0.250143
vt 0.343621 0.250143
vt 0.333146 0.993065
vt 0.346343 0.993045
vt 0.328997 0.488106
vt 0.661945 0.271550
vt 0.673718 0.240313
vt 0.661712 0.240313
vt 0.673718 0.250143
vt 0.659541 0.513488
vt 0.675977 0.992785
vt 0.661944 0.260635
vt 0.092780 0.200003
vt 0.092780 0.180419
vt 0.067829 0.240313
vt 0.101171 0.180419
vt 0.067829 0.250143
vt 0.101171 0.200003
vt 0.092780 0.219587
vt 0.101171 0.219587
vt 0.092780 0.239171
vt 0.101171 0.239171
vt 0.092780 0.258754
vt 0.101171 0.258754
vt 0.092780 0.278338
vt 0.101171 0.278338
vt 0.051110 0.050742
vt 0.092780 0.297922
vt 0.057793 0.050742
vt 0.101171 0.297922
vt 0.128327 0.259479
vt 0.128327 0.277802
vt 0.021322 0.260635
vt 0.121203 0.277802
vt 0.021322 0.271550
vt 0.121203 0.259479
vt 0.128327 0.241156
vt 0.121203 0.241156
vt 0.128327 0.222833
vt 0.121203 0.222833
vt 0.128327 0.204511
vt 0.121203 0.204511
vt 0.128327 0.186188
vt 0.121203 0.186188
vt 0.057793 0.419616
vt 0.128327 0.167865
vt 0.051110 0.419616
vt 0.121203 0.167865
vt 0.677487 0.008696
vt 0.671134 0.008698
vt 0.336963 0.250143
vt 0.335464 0.511490
vt 0.330509 0.271550
vt 0.671134 0.491498
vt 0.330509 0.260635
vt 0.337669 0.260635
vt 0.335357 0.488022
vt 0.667969 0.271550
vt 0.340125 0.009045
vt 0.667745 0.240313
vt 0.667969 0.260635
vt 0.669745 0.992722
vt 0.667745 0.250143
vt 0.665439 0.513523
vt 0.114148 0.267383
vt 0.114148 0.288570
vt 0.939493 0.240313
vt 0.121658 0.288570
vt 0.939493 0.250143
vt 0.121658 0.267383
vt 0.114148 0.246195
vt 0.121658 0.246195
vt 0.114148 0.225008
vt 0.121658 0.225008
vt 0.114148 0.203820
vt 0.121658 0.203820
vt 0.114148 0.182633
vt 0.121658 0.182633
vt 0.114148 0.161446
vt 0.954909 0.058247
vt 0.121658 0.161446
vt 0.948014 0.058247
vt 0.168207 0.269694
vt 0.168207 0.289086
vt 0.989237 0.260635
vt 0.176112 0.289086
vt 0.989237 0.271550
vt 0.176112 0.269694
vt 0.168207 0.250301
vt 0.176112 0.250301
vt 0.168207 0.230909
vt 0.176112 0.230909
vt 0.168207 0.211517
vt 0.176112 0.211517
vt 0.168207 0.192124
vt 0.176112 0.192124
vt 0.168207 0.172732
vt 0.948014 0.438837
vt 0.176112 0.172732
vt 0.954909 0.438837
vt 0.333691 0.008908
vt 0.671764 0.513488
vt 0.675029 0.271550
vt 0.675029 0.260635
vt 0.348556 0.511650
vt 0.344318 0.260635
vt 0.343621 0.240313
vt 0.344317 0.271550
vt 0.341482 0.488085
vt 0.346162 0.009039
vt 0.661712 0.250143
vt 0.663725 0.992728
s 1
f 107/113/1 93/95/2 94/97/2
f 2/2/3 115/123/3 116/124/3
f 65/65/4 110/118/4 109/117/4
f 4/4/5 112/120/5 3/3/5
f 83/84/6 81/81/7 82/82/6
f 84/86/7 85/87/8 81/81/7
f 86/88/8 87/89/9 85/87/8
f 88/90/9 89/91/10 87/89/9
f 90/92/10 91/93/11 89/91/10
f 92/94/11 93/96/2 91/93/11
f 97/102/12 95/99/13 96/100/12
f 98/104/13 99/105/14 95/99/13
f 100/106/14 101/107/15 99/105/14
f 102/108/15 103/109/16 101/107/15
f 104/110/16 105/111/17 103/109/16
f 106/112/17 107/114/1 105/111/17
f 111/119/18 67/67/18 1/1/18
f 164/176/3 116/124/3 162/174/3
f 72/72/5 3/3/5 161/173/5
f 70/70/18 1/1/18 163/175/18
f 138/148/5 154/166/5 140/150/5
f 121/129/3 159/171/3 118/126/3
f 119/127/19 73/73/20 157/169/21
f 158/170/22 122/130/23 124/132/23
f 125/133/24 127/136/25 126/134/25
f 129/139/26 128/138/24 125/133/24
f 131/141/27 130/140/26 129/139/26
f 133/143/28 132/142/27 131/141/27
f 135/145/29 134/144/28 133/143/28
f 137/147/30 136/146/29 135/145/29
f 141/151/31 143/154/32 142/152/32
f 145/157/33 144/156/31 141/151/31
f 147/159/34 146/158/33 145/157/33
f 149/161/35 148/160/34 147/159/34
f 151/163/36 150/162/35 149/161/35
f 153/165/37 152/164/36 151/163/36
f 75/75/18 123/131/18 120/128/18
f 68/68/4 114/122/4 66/66/4
f 166/178/4 34/34/4 33/33/4
f 113/121/3 96/101/12 115/123/3
f 12/12/4 17/17/4 109/117/4
f 167/179/18 120/128/18 123/131/18
f 69/69/18 82/83/6 67/67/18
f 168/180/5 35/35/5 36/36/5
f 74/74/3 121/129/3 118/126/3
f 32/32/5 22/22/5 20/20/5
f 47/47/38 43/43/38 39/39/38
f 164/176/3 80/80/3 74/74/3
f 68/68/4 165/177/4 166/178/4
f 126/135/25 77/77/18 75/75/18
f 51/51/39 62/62/39 79/79/22
f 70/70/18 76/76/18 167/179/18
f 142/153/32 159/171/3 160/172/3
f 72/72/5 78/78/5 168/180/5
f 107/113/1 108/115/1 93/95/2
f 2/2/3 113/121/3 115/123/3
f 65/65/4 114/122/4 110/118/4
f 4/4/5 71/71/5 112/120/5
f 83/84/6 84/86/7 81/81/7
f 84/86/7 86/88/8 85/87/8
f 86/88/8 88/90/9 87/89/9
f 88/90/9 90/92/10 89/91/10
f 90/92/10 92/94/11 91/93/11
f 92/94/11 94/98/2 93/96/2
f 97/102/12 98/104/13 95/99/13
f 98/104/13 100/106/14 99/105/14
f 100/106/14 102/108/15 101/107/15
f 102/108/15 104/110/16 103/109/16
f 104/110/16 106/112/17 105/111/17
f 106/112/17 108/116/1 107/114/1
f 111/119/18 69/69/18 67/67/18
f 164/176/3 2/2/3 116/124/3
f 72/72/5 4/4/5 3/3/5
f 70/70/18 111/119/18 1/1/18
f 138/148/5 156/168/5 154/166/5
f 121/129/3 160/172/3 159/171/3
f 119/127/19 117/125/19 73/73/20
f 158/170/22 79/79/22 122/130/23
f 125/133/24 128/138/24 127/136/25
f 129/139/26 130/140/26 128/138/24
f 131/141/27 132/142/27 130/140/26
f 133/143/28 134/144/28 132/142/27
f 135/145/29 136/146/29 134/144/28
f 137/147/30 139/149/30 136/146/29
f 141/151/31 144/156/31 143/154/32
f 145/157/33 146/158/33 144/156/31
f 147/159/34 148/160/34 146/158/33
f 149/161/35 150/162/35 148/160/34
f 151/163/36 152/164/36 150/162/35
f 153/165/37 155/167/37 152/164/36
f 75/75/18 77/77/18 123/131/18
f 68/68/4 110/118/4 114/122/4
f 166/178/4 165/177/4 34/34/4
f 113/121/3 97/103/12 96/101/12
f 109/117/4 5/5/4 7/7/4
f 7/7/4 8/8/4 9/9/4
f 9/9/4 10/10/4 11/11/4
f 11/11/4 6/6/4 12/12/4
f 12/12/4 14/14/4 15/15/4
f 15/15/4 16/16/4 17/17/4
f 17/17/4 18/18/4 13/13/4
f 13/13/4 65/65/4 109/117/4
f 109/117/4 7/7/4 9/9/4
f 9/9/4 11/11/4 12/12/4
f 12/12/4 15/15/4 17/17/4
f 17/17/4 13/13/4 109/117/4
f 109/117/4 9/9/4 12/12/4
f 167/179/18 76/76/18 120/128/18
f 69/69/18 83/85/6 82/83/6
f 168/180/5 78/78/5 35/35/5
f 74/74/3 80/80/3 121/129/3
f 20/20/5 112/120/5 71/71/5
f 71/71/5 26/26/5 28/28/5
f 28/28/5 29/29/5 30/30/5
f 30/30/5 31/31/5 32/32/5
f 32/32/5 27/27/5 19/19/5
f 19/19/5 21/21/5 22/22/5
f 22/22/5 23/23/5 24/24/5
f 24/24/5 25/25/5 20/20/5
f 20/20/5 71/71/5 28/28/5
f 28/28/5 30/30/5 32/32/5
f 32/32/5 19/19/5 22/22/5
f 22/22/5 24/24/5 20/20/5
f 20/20/5 28/28/5 32/32/5
f 39/39/38 37/37/38 157/169/21
f 157/169/21 73/73/20 45/45/38
f 45/45/38 50/50/38 49/49/38
f 49/49/38 48/48/38 47/47/38
f 47/47/38 46/46/38 44/44/38
f 44/44/38 38/38/38 43/43/38
f 43/43/38 42/42/38 41/41/38
f 41/41/38 40/40/38 39/39/38
f 39/39/38 157/169/21 45/45/38
f 45/45/38 49/49/38 47/47/38
f 47/47/38 44/44/38 43/43/38
f 43/43/38 41/41/38 39/39/38
f 39/39/38 45/45/38 47/47/38
f 164/176/3 162/174/3 80/80/3
f 68/68/4 66/66/4 165/177/4
f 126/135/25 127/137/25 77/77/18
f 79/79/22 158/170/22 52/52/39
f 52/52/39 57/57/39 56/56/39
f 56/56/39 55/55/39 54/54/39
f 54/54/39 53/53/39 51/51/39
f 51/51/39 59/59/39 64/64/39
f 64/64/39 63/63/39 62/62/39
f 62/62/39 61/61/39 60/60/39
f 60/60/39 58/58/39 79/79/22
f 79/79/22 52/52/39 56/56/39
f 56/56/39 54/54/39 51/51/39
f 51/51/39 64/64/39 62/62/39
f 62/62/39 60/60/39 79/79/22
f 79/79/22 56/56/39 51/51/39
f 70/70/18 163/175/18 76/76/18
f 142/153/32 143/155/32 159/171/3
f 72/72/5 161/173/5 78/78/5
